<?xml version="1.0" encoding="utf-8"?>
<!-- Generator: Adobe Illustrator 17.0.0, SVG Export Plug-In . SVG Version: 6.00 Build 0)  -->
<!DOCTYPE svg PUBLIC "-//W3C//DTD SVG 1.1//EN" "http://www.w3.org/Graphics/SVG/1.1/DTD/svg11.dtd">
<svg version="1.1" id="Layer_1" xmlns="http://www.w3.org/2000/svg" xmlns:xlink="http://www.w3.org/1999/xlink" x="0px" y="0px"
	 width="510px" height="141px" viewBox="0 0 510 141" enable-background="new 0 0 510 141" xml:space="preserve">
<g>
	<defs>
		<rect id="SVGID_1_" x="-170" y="-126.276" width="841.89" height="595.276"/>
	</defs>
	<clipPath id="SVGID_2_">
		<use xlink:href="#SVGID_1_"  overflow="visible"/>
	</clipPath>
	<path clip-path="url(#SVGID_2_)" fill="#3479BE" d="M47.328,84.533c5.844-0.97,11.354-3.223,13.85-10.967
		c4.001-10.844,4.048-24.551,11.305-32.509c8.201-8.509,19.942-6.528,30.158,2.634c13.424,12.467,19.779,33.007,20.224,52.312
		c-0.127,2.08,1.395,2.174,1.535-1.225c-0.438-11.6-3.18-23.679-7.838-34.495c-7.754-16.885-21.408-29.943-34.253-28.317
		c-13.703,0.649-20.254,16.691-26.9,30.201c-6.21,11.099-8.383,8.579-14.631,9.9C34.535,73.387,35.32,85.998,47.328,84.533"/>
	<path clip-path="url(#SVGID_2_)" fill="#3479BE" d="M109.831,80.047c-3.072-10.416-8.171-20.941-16.37-24.716
		c-3.867-1.652-8.711,1.558-8.038,6.078c1.802,16.538-0.679,31.055-3.189,42.714c-2.236,10.381,21.719,23.249,28.26-2.383
		C112.827,94.625,110.847,83.495,109.831,80.047"/>
	<path clip-path="url(#SVGID_2_)" fill="#3479BE" d="M81.647,40.116C67.523,44.336,70.921,66,66.937,80.907
		c-1.739,7.525-6.297,10.546-10.934,13.131c-12.699,8.012,11.542,22.957,18.402,10.308c5.529-12.302,5.303-27.549,4.812-44.322
		C79,42.779,95.883,46.546,104.824,58.303c9.143,12.42,12.574,27.711,11.843,41.786c-0.052,5.635,4.782,3.957,4.617-2.913
		c-0.174-11.527-2.72-23.7-7.799-34.714C105.65,47.1,93.457,36.513,81.647,40.116"/>
	<path clip-path="url(#SVGID_2_)" fill="#3479BE" d="M184.649,70.9v21.956c0,4.673-3.805,8.586-8.588,8.586
		c-4.672,0-8.476-3.913-8.476-8.586V70.9c0-3.804-3.044-6.739-6.74-6.739c-3.696,0-6.739,2.935-6.739,6.739v21.956
		c0,4.673-3.804,8.586-8.586,8.586c-4.673,0-8.477-3.913-8.477-8.586V54.598c0-4.132,3.368-7.501,7.498-7.501
		c2.175,0,4.241,0.979,5.543,2.392c3.37-1.631,6.957-2.501,10.761-2.501c6.304,0,12.283,2.501,16.848,7.065
		C182.148,58.512,184.649,64.487,184.649,70.9"/>
	<path clip-path="url(#SVGID_2_)" fill="#3479BE" d="M221.275,67.204h2.501c-0.977-3.911-5.217-6.738-10.217-6.738
		c-5.109,0-9.348,2.827-10.435,6.738h3.262h14.998H221.275z M202.582,79.161c0.542,1.413,1.412,2.825,2.609,3.805
		c2.281,2.174,5.542,3.476,9.237,3.476c3.154,0,6.522-0.976,8.805-2.608c3.26-2.391,7.717-1.412,10.108,1.958
		c2.173,3.369,1.303,8.151-1.958,10.434c-4.672,3.369-10.868,5.216-16.955,5.216c-7.499,0-14.238-2.717-19.346-7.608
		c-2.392-2.391-4.348-5.216-5.652-8.478c-1.523-3.151-2.283-6.739-2.283-10.435v-0.434v-0.435c0-3.695,0.76-7.173,2.173-10.543
		c1.414-3.26,3.261-6.087,5.545-8.586c2.5-2.499,5.216-4.457,8.367-5.87c3.263-1.413,6.741-1.956,10.327-1.956
		c6.304,0,12.5,1.956,17.064,5.87c5.001,4.129,8.26,9.999,9.021,16.629c0.653,4.673-2.716,9.021-7.282,9.565H202.582z"/>
	<path clip-path="url(#SVGID_2_)" fill="#3479BE" d="M273.461,92.856c0,4.781-3.805,8.586-8.478,8.586
		c-6.087,0-11.738-2.39-15.976-6.522c-4.241-4.347-6.632-9.999-6.632-16.085v-0.652V77.53V38.292c0-4.673,3.804-8.477,8.587-8.477
		c4.673,0,8.478,3.804,8.478,8.477v8.805h6.521c4.13,0,7.5,3.369,7.5,7.608c0,4.131-3.37,7.5-7.5,7.5h-6.521V77.53v0.653v0.652
		c0,3.042,2.499,5.542,5.543,5.542C269.656,84.377,273.461,88.182,273.461,92.856"/>
	<path clip-path="url(#SVGID_2_)" fill="#3479BE" d="M291.261,101.442c-4.128,0.11-8.912-1.304-12.172-3.368
		c-3.478-2.282-4.457-6.848-2.173-10.326c1.955-2.936,6.194-4.456,9.455-2.718c0.762,0.436,1.521,0.871,2.392,1.086
		c1.52,0.436,3.695,0.436,4.781-0.869c0.543-0.543,0.76-1.304,0.652-2.065c-0.326-1.957-2.391-2.174-4.02-2.608
		c-1.306-0.326-2.501-0.76-3.697-1.304c-1.847-0.98-3.478-2.066-5-3.478c-3.37-3.153-5.325-7.065-5.433-11.196
		c-0.219-4.456,1.413-8.803,4.565-12.172c3.042-3.261,7.173-5.219,11.521-5.545c3.695-0.216,7.934,0.652,10.869,2.392
		c3.586,2.064,4.891,6.631,2.718,10.217c-2.066,3.587-6.632,4.782-10.219,2.717c-1.304-0.652-3.695-0.87-4.128,1.088
		c-0.327,1.629,1.194,2.39,2.389,2.717c1.088,0.435,2.284,0.544,3.478,0.869c1.848,0.651,3.697,1.63,5.327,2.935
		c0.653,0.543,1.413,1.195,2.065,1.846c2.825,3.045,4.457,7.066,4.674,11.305c0.108,4.783-1.631,9.348-5.001,12.827
		c-3.151,3.26-7.39,5.215-12.063,5.65H291.261z"/>
	<path clip-path="url(#SVGID_2_)" fill="#3479BE" d="M338.3,101.442c-3.695,0-7.282-0.652-10.542-2.064
		c-3.261-1.414-6.196-3.369-8.696-5.87s-4.457-5.434-5.869-8.587c-1.303-3.369-2.066-6.956-2.066-10.652
		c0-3.587,0.763-7.173,2.066-10.651c1.412-3.153,3.369-5.979,5.869-8.587c2.5-2.5,5.435-4.347,8.696-5.76
		c3.26-1.521,6.847-2.174,10.542-2.174c3.045,0,5.979,0.543,8.912,1.523c2.828,0.869,5.328,2.28,7.608,4.129
		c3.697,2.827,4.458,8.151,1.632,11.956c-1.739,2.174-4.24,3.37-6.847,3.37c-1.74,0-3.587-0.653-5.219-1.848
		c-1.738-1.414-3.803-2.066-6.086-2.066c-5.651,0-10.107,4.566-10.107,10.108c0,5.653,4.456,10.108,10.107,10.108
		c2.283,0,4.348-0.651,6.086-2.062c3.805-2.829,9.131-2.176,11.957,1.628c2.935,3.694,2.174,9.13-1.523,11.957
		C350.148,99.595,344.279,101.442,338.3,101.442"/>
	<path clip-path="url(#SVGID_2_)" fill="#3479BE" d="M396.057,74.161c0-2.718-1.087-5.216-2.936-7.174
		c-1.957-1.956-4.457-2.935-7.174-2.935c-2.718,0-5.216,0.979-7.173,2.935c-1.957,1.958-2.935,4.456-2.935,7.174
		c0,2.718,0.978,5.217,2.935,7.173c1.957,1.848,4.455,2.934,7.173,2.934c2.717,0,5.217-1.086,7.174-2.934
		C394.97,79.378,396.057,76.879,396.057,74.161 M413.121,54.597v39.237c0,4.129-3.369,7.498-7.5,7.498c-2.717,0-5-1.411-6.412-3.478
		c-3.913,2.175-8.479,3.478-13.262,3.478c-14.999,0-27.173-12.171-27.173-27.171c0-14.999,12.174-27.173,27.173-27.173
		c4.891,0,9.458,1.304,13.37,3.478c1.412-1.956,3.696-3.37,6.304-3.37C409.752,47.096,413.121,50.466,413.121,54.597"/>
	<path clip-path="url(#SVGID_2_)" fill="#3479BE" d="M464.962,70.9v21.956c0,4.673-3.804,8.586-8.587,8.586
		c-4.673,0-8.477-3.913-8.477-8.586V70.9c0-3.804-3.044-6.739-6.738-6.739c-3.696,0-6.739,2.935-6.739,6.739v21.956
		c0,4.673-3.804,8.586-8.588,8.586c-4.673,0-8.477-3.913-8.477-8.586V54.598c0-4.132,3.37-7.501,7.5-7.501
		c2.174,0,4.238,0.979,5.544,2.392c3.367-1.631,6.956-2.501,10.76-2.501c6.304,0,12.28,2.501,16.846,7.065
		C462.462,58.512,464.962,64.487,464.962,70.9"/>
</g>
</svg>
